# xmcd CD database file
#
# Track frame offsets:
#	150
#	66916
#	98514
#	145476
#	173329
#	203031
#
# Disc length: 3396 seconds
#
# Revision: 2
# Processed by: cddbd v1.5.1PL0 Copyright (c) Steve Scherf et al.
# Submitted via: CDex 1.51
#
DISCID=4a0d4206
DTITLE=UFRJazz - UFRJazz Ensemble Interpreta Julio Barbosa
DYEAR=2003
DGENRE=Jazz
TTITLE0=Quatro Estacoes (Four Seasons)
TTITLE1=Caminhando
TTITLE2=Sambalanco
TTITLE3=Relax
TTITLE4=Surpresa (Surprise)
TTITLE5=Embalo
EXTD=YEAR: 2003
EXTT0=
EXTT1=
EXTT2=
EXTT3=
EXTT4=
EXTT5=
PLAYORDER=
